<svg width="1700" height="950" viewBox="0 0 1700 950" fill="none" xmlns="http://www.w3.org/2000/svg">
<rect width="1700" height="950" fill="#121212"/>
<path d="M54.0838 912C52.8778 912.18 51.7258 912.27 50.6278 912.27C49.5478 912.27 48.6388 911.901 47.9008 911.163C47.1628 910.425 46.7938 909.444 46.7938 908.22V893.1H51.5188V907.545C51.5188 907.815 51.6088 908.04 51.7888 908.22C51.9688 908.4 52.1938 908.49 52.4638 908.49H54.0838V912ZM62.5846 908.355C63.5386 908.355 64.6186 908.175 65.8246 907.815V897.69H70.5496V912H66.3646L66.0946 910.65C65.2486 911.208 64.3756 911.622 63.4756 911.892C62.5936 912.144 61.8466 912.27 61.2346 912.27H60.0196C58.7956 912.27 57.8146 911.901 57.0766 911.163C56.3386 910.425 55.9696 909.444 55.9696 908.22V897.69H60.6946V907.41C60.6946 907.68 60.7846 907.905 60.9646 908.085C61.1446 908.265 61.3696 908.355 61.6396 908.355H62.5846ZM85.9301 911.73C82.5641 912.09 79.5941 912.27 77.0201 912.27C75.7961 912.27 74.8151 911.901 74.0771 911.163C73.3391 910.425 72.9701 909.444 72.9701 908.22V902.01C72.9701 900.66 73.3481 899.607 74.1041 898.851C74.8781 898.077 75.9401 897.69 77.2901 897.69H85.9301V901.335H78.7751C78.0551 901.335 77.6951 901.695 77.6951 902.415V907.68C77.6951 907.95 77.7851 908.175 77.9651 908.355C78.1451 908.535 78.3701 908.625 78.6401 908.625C80.2601 908.625 82.6901 908.49 85.9301 908.22V911.73ZM87.5449 907.95H92.4049V912H87.5449V907.95ZM107.261 911.73C103.895 912.09 100.925 912.27 98.3512 912.27C97.1272 912.27 96.1462 911.901 95.4082 911.163C94.6702 910.425 94.3012 909.444 94.3012 908.22V902.01C94.3012 900.66 94.6792 899.607 95.4352 898.851C96.2092 898.077 97.2712 897.69 98.6212 897.69H107.261V901.335H100.106C99.3862 901.335 99.0262 901.695 99.0262 902.415V907.68C99.0262 907.95 99.1162 908.175 99.2962 908.355C99.4762 908.535 99.7012 908.625 99.9712 908.625C101.591 908.625 104.021 908.49 107.261 908.22V911.73ZM123.996 907.95C123.996 909.3 123.609 910.362 122.835 911.136C122.079 911.892 121.026 912.27 119.676 912.27H113.466C112.116 912.27 111.054 911.892 110.28 911.136C109.524 910.362 109.146 909.3 109.146 907.95V901.74C109.146 900.39 109.524 899.337 110.28 898.581C111.054 897.807 112.116 897.42 113.466 897.42H119.676C121.026 897.42 122.079 897.807 122.835 898.581C123.609 899.337 123.996 900.39 123.996 901.74V907.95ZM119.271 902.145C119.271 901.425 118.911 901.065 118.191 901.065H114.951C114.231 901.065 113.871 901.425 113.871 902.145V907.545C113.871 908.265 114.231 908.625 114.951 908.625H118.191C118.911 908.625 119.271 908.265 119.271 907.545V902.145ZM136.008 897.42C137.466 897.42 138.591 897.96 139.383 899.04C140.211 898.482 141.102 898.077 142.056 897.825C143.028 897.555 143.892 897.42 144.648 897.42H144.918C146.142 897.42 147.123 897.789 147.861 898.527C148.599 899.265 148.968 900.246 148.968 901.47V912H144.243V902.28C144.243 902.01 144.153 901.785 143.973 901.605C143.793 901.425 143.568 901.335 143.298 901.335H143.163C142.353 901.335 141.318 901.515 140.058 901.875V912H135.333V902.28C135.333 902.01 135.243 901.785 135.063 901.605C134.883 901.425 134.658 901.335 134.388 901.335H134.253C133.443 901.335 132.408 901.515 131.148 901.875V912H126.423V897.69H130.608L130.878 899.04C131.724 898.482 132.588 898.077 133.47 897.825C134.37 897.555 135.126 897.42 135.738 897.42H136.008ZM159.357 901.335C158.403 901.335 157.323 901.515 156.117 901.875V908.355H160.167C160.887 908.355 161.247 907.995 161.247 907.275V902.28C161.247 902.01 161.157 901.785 160.977 901.605C160.797 901.425 160.572 901.335 160.302 901.335H159.357ZM156.117 912V916.59H151.392V897.69H155.577L155.847 899.04C156.693 898.482 157.557 898.077 158.439 897.825C159.339 897.555 160.095 897.42 160.707 897.42H161.922C163.146 897.42 164.127 897.789 164.865 898.527C165.603 899.265 165.972 900.246 165.972 901.47V907.68C165.972 909.03 165.585 910.092 164.811 910.866C164.055 911.622 163.002 912 161.652 912H156.117ZM175.014 908.355C175.968 908.355 177.048 908.175 178.254 907.815V897.69H182.979V912H178.794L178.524 910.65C177.678 911.208 176.805 911.622 175.905 911.892C175.023 912.144 174.276 912.27 173.664 912.27H172.449C171.225 912.27 170.244 911.901 169.506 911.163C168.768 910.425 168.399 909.444 168.399 908.22V897.69H173.124V907.41C173.124 907.68 173.214 907.905 173.394 908.085C173.574 908.265 173.799 908.355 174.069 908.355H175.014ZM195.66 912C193.914 912.18 192.204 912.27 190.53 912.27C189.306 912.27 188.325 911.901 187.587 911.163C186.849 910.425 186.48 909.444 186.48 908.22V901.335H184.86V897.69H186.48L187.02 894.45H191.205V897.69H194.58V901.335H191.205V907.545C191.205 907.815 191.295 908.04 191.475 908.22C191.655 908.4 191.88 908.49 192.15 908.49H195.66V912ZM202.833 900.795C202.113 900.795 201.753 901.155 201.753 901.875V903.36H206.343V901.875C206.343 901.155 205.983 900.795 205.263 900.795H202.833ZM210.528 911.73C207.054 912.09 203.904 912.27 201.078 912.27C199.854 912.27 198.873 911.901 198.135 911.163C197.397 910.425 197.028 909.444 197.028 908.22V901.74C197.028 900.39 197.406 899.337 198.162 898.581C198.936 897.807 199.998 897.42 201.348 897.42H206.748C208.098 897.42 209.151 897.807 209.907 898.581C210.681 899.337 211.068 900.39 211.068 901.74V906.735H201.753V907.815C201.753 908.085 201.843 908.31 202.023 908.49C202.203 908.67 202.428 908.76 202.698 908.76C204.48 908.76 207.09 908.625 210.528 908.355V911.73ZM221.722 901.605C220.588 901.605 219.418 901.875 218.212 902.415V912H213.487V897.69H217.672L217.942 899.445C219.49 898.095 221.11 897.42 222.802 897.42H224.017V901.605H221.722Z" fill="white"/>
<path d="M1484.98 911.73C1481.15 912.09 1477.64 912.27 1474.45 912.27C1472.54 912.27 1471.08 911.757 1470.05 910.731C1469.02 909.705 1468.51 908.238 1468.51 906.33V898.77C1468.51 896.862 1469.02 895.395 1470.05 894.369C1471.08 893.343 1472.54 892.83 1474.45 892.83H1483.09C1484.44 892.83 1485.49 893.217 1486.25 893.991C1487.02 894.747 1487.41 895.8 1487.41 897.15V907.14H1483.63L1483.36 905.79C1482.57 906.348 1481.79 906.762 1481.01 907.032C1480.24 907.284 1479.58 907.41 1479.04 907.41H1478.5C1477.28 907.41 1476.3 907.041 1475.56 906.303C1474.82 905.565 1474.45 904.584 1474.45 903.36V902.415C1474.45 901.191 1474.82 900.21 1475.56 899.472C1476.3 898.734 1477.28 898.365 1478.5 898.365H1483.09V897.555C1483.09 897.213 1482.97 896.925 1482.74 896.691C1482.51 896.457 1482.22 896.34 1481.88 896.34H1474.72C1474.18 896.34 1473.73 896.52 1473.37 896.88C1473.01 897.24 1472.83 897.69 1472.83 898.23V906.87C1472.83 907.41 1473.01 907.86 1473.37 908.22C1473.73 908.58 1474.18 908.76 1474.72 908.76C1477.04 908.76 1480.46 908.625 1484.98 908.355V911.73ZM1480.39 903.765C1481.17 903.765 1482.07 903.585 1483.09 903.225V901.74H1479.99C1479.72 901.74 1479.49 901.83 1479.31 902.01C1479.13 902.19 1479.04 902.415 1479.04 902.685V902.82C1479.04 903.09 1479.13 903.315 1479.31 903.495C1479.49 903.675 1479.72 903.765 1479.99 903.765H1480.39ZM1496.85 912C1495.64 912.18 1494.49 912.27 1493.39 912.27C1492.31 912.27 1491.4 911.901 1490.67 911.163C1489.93 910.425 1489.56 909.444 1489.56 908.22V893.1H1494.28V907.545C1494.28 907.815 1494.37 908.04 1494.55 908.22C1494.73 908.4 1494.96 908.49 1495.23 908.49H1496.85V912ZM1505.35 908.355C1506.3 908.355 1507.38 908.175 1508.59 907.815V897.69H1513.31V912H1509.13L1508.86 910.65C1508.01 911.208 1507.14 911.622 1506.24 911.892C1505.36 912.144 1504.61 912.27 1504 912.27H1502.78C1501.56 912.27 1500.58 911.901 1499.84 911.163C1499.1 910.425 1498.73 909.444 1498.73 908.22V897.69H1503.46V907.41C1503.46 907.68 1503.55 907.905 1503.73 908.085C1503.91 908.265 1504.13 908.355 1504.4 908.355H1505.35ZM1528.7 911.73C1525.33 912.09 1522.36 912.27 1519.79 912.27C1518.56 912.27 1517.58 911.901 1516.84 911.163C1516.1 910.425 1515.74 909.444 1515.74 908.22V902.01C1515.74 900.66 1516.11 899.607 1516.87 898.851C1517.64 898.077 1518.71 897.69 1520.06 897.69H1528.7V901.335H1521.54C1520.82 901.335 1520.46 901.695 1520.46 902.415V907.68C1520.46 907.95 1520.55 908.175 1520.73 908.355C1520.91 908.535 1521.14 908.625 1521.41 908.625C1523.03 908.625 1525.46 908.49 1528.7 908.22V911.73ZM1536.39 900.795C1535.67 900.795 1535.31 901.155 1535.31 901.875V903.36H1539.9V901.875C1539.9 901.155 1539.54 900.795 1538.82 900.795H1536.39ZM1544.08 911.73C1540.61 912.09 1537.46 912.27 1534.63 912.27C1533.41 912.27 1532.43 911.901 1531.69 911.163C1530.95 910.425 1530.58 909.444 1530.58 908.22V901.74C1530.58 900.39 1530.96 899.337 1531.71 898.581C1532.49 897.807 1533.55 897.42 1534.9 897.42H1540.3C1541.65 897.42 1542.7 897.807 1543.46 898.581C1544.23 899.337 1544.62 900.39 1544.62 901.74V906.735H1535.31V907.815C1535.31 908.085 1535.4 908.31 1535.58 908.49C1535.76 908.67 1535.98 908.76 1536.25 908.76C1538.03 908.76 1540.64 908.625 1544.08 908.355V911.73ZM1556.62 897.42C1558.08 897.42 1559.21 897.96 1560 899.04C1560.83 898.482 1561.72 898.077 1562.67 897.825C1563.64 897.555 1564.51 897.42 1565.26 897.42H1565.53C1566.76 897.42 1567.74 897.789 1568.48 898.527C1569.22 899.265 1569.58 900.246 1569.58 901.47V912H1564.86V902.28C1564.86 902.01 1564.77 901.785 1564.59 901.605C1564.41 901.425 1564.18 901.335 1563.91 901.335H1563.78C1562.97 901.335 1561.93 901.515 1560.67 901.875V912H1555.95V902.28C1555.95 902.01 1555.86 901.785 1555.68 901.605C1555.5 901.425 1555.27 901.335 1555 901.335H1554.87C1554.06 901.335 1553.02 901.515 1551.76 901.875V912H1547.04V897.69H1551.22L1551.49 899.04C1552.34 898.482 1553.2 898.077 1554.09 897.825C1554.99 897.555 1555.74 897.42 1556.35 897.42H1556.62ZM1577.68 908.49C1578.63 908.49 1579.71 908.31 1580.92 907.95V906.33H1577C1576.73 906.33 1576.51 906.42 1576.33 906.6C1576.15 906.78 1576.06 907.005 1576.06 907.275V907.545C1576.06 907.815 1576.15 908.04 1576.33 908.22C1576.51 908.4 1576.73 908.49 1577 908.49H1577.68ZM1572.68 897.96C1575.98 897.6 1578.95 897.42 1581.59 897.42C1582.82 897.42 1583.8 897.789 1584.54 898.527C1585.28 899.265 1585.64 900.246 1585.64 901.47V912H1581.46L1581.19 910.65C1580.34 911.208 1579.47 911.622 1578.57 911.892C1577.69 912.144 1576.94 912.27 1576.33 912.27H1575.38C1574.16 912.27 1573.18 911.901 1572.44 911.163C1571.7 910.425 1571.33 909.444 1571.33 908.22V907.005C1571.33 905.781 1571.7 904.8 1572.44 904.062C1573.18 903.324 1574.16 902.955 1575.38 902.955H1580.92V901.875C1580.92 901.605 1580.83 901.38 1580.65 901.2C1580.47 901.02 1580.24 900.93 1579.97 900.93C1578.8 900.93 1577.51 900.984 1576.09 901.092C1574.68 901.2 1573.55 901.281 1572.68 901.335V897.96ZM1596.03 901.335C1595.08 901.335 1594 901.515 1592.79 901.875V912H1588.07V897.69H1592.25L1592.52 899.04C1593.37 898.482 1594.23 898.077 1595.11 897.825C1596.01 897.555 1596.77 897.42 1597.38 897.42H1598.6C1599.82 897.42 1600.8 897.789 1601.54 898.527C1602.28 899.265 1602.65 900.246 1602.65 901.47V912H1597.92V902.28C1597.92 902.01 1597.83 901.785 1597.65 901.605C1597.47 901.425 1597.25 901.335 1596.98 901.335H1596.03ZM1604.53 908.22C1608.19 908.49 1611.07 908.625 1613.17 908.625C1613.44 908.625 1613.67 908.535 1613.85 908.355C1614.03 908.175 1614.12 907.95 1614.12 907.68V906.735H1608.31C1607.09 906.735 1606.11 906.366 1605.37 905.628C1604.63 904.89 1604.26 903.909 1604.26 902.685V901.74C1604.26 900.516 1604.63 899.535 1605.37 898.797C1606.11 898.059 1607.09 897.69 1608.31 897.69H1617.49V901.2H1609.93C1609.66 901.2 1609.44 901.29 1609.26 901.47C1609.08 901.65 1608.99 901.875 1608.99 902.145C1608.99 902.415 1609.08 902.64 1609.26 902.82C1609.44 903 1609.66 903.09 1609.93 903.09H1614.79C1616.02 903.09 1617 903.459 1617.74 904.197C1618.47 904.935 1618.84 905.916 1618.84 907.14V908.22C1618.84 909.444 1618.47 910.425 1617.74 911.163C1617 911.901 1616.02 912.27 1614.79 912.27C1611.61 912.27 1608.19 912.09 1604.53 911.73V908.22ZM1628.7 901.335C1627.75 901.335 1626.67 901.515 1625.46 901.875V912H1620.74V897.69H1624.92L1625.19 899.04C1626.04 898.482 1626.9 898.077 1627.78 897.825C1628.68 897.555 1629.44 897.42 1630.05 897.42H1631.27C1632.49 897.42 1633.47 897.789 1634.21 898.527C1634.95 899.265 1635.32 900.246 1635.32 901.47V912H1630.59V902.28C1630.59 902.01 1630.5 901.785 1630.32 901.605C1630.14 901.425 1629.92 901.335 1629.65 901.335H1628.7ZM1645.03 912C1643.83 912.18 1642.67 912.27 1641.58 912.27C1640.5 912.27 1639.59 911.901 1638.85 911.163C1638.11 910.425 1637.74 909.444 1637.74 908.22V893.1H1642.47V907.545C1642.47 907.815 1642.56 908.04 1642.74 908.22C1642.92 908.4 1643.14 908.49 1643.41 908.49H1645.03V912Z" fill="white"/>
<path d="M698.532 617H708.745V645.732C708.745 649.676 707.837 652.549 706.021 654.352C704.243 656.117 701.369 657 697.397 657H684.348C680.376 657 677.482 656.117 675.667 654.352C673.889 652.549 673 649.676 673 645.732V617H683.213V645.732C683.213 647.986 684.348 649.113 686.617 649.113H695.128C697.397 649.113 698.532 647.986 698.532 645.732V617Z" fill="white"/>
<path d="M714.362 648.268C724.726 648.831 731.742 649.113 735.411 649.113C736.281 649.113 736.962 648.869 737.454 648.38C737.983 647.854 738.248 647.16 738.248 646.296V641.225H725.199C721.227 641.225 718.333 640.343 716.518 638.577C714.74 636.775 713.851 633.901 713.851 629.958V628.268C713.851 624.324 714.74 621.469 716.518 619.704C718.333 617.901 721.227 617 725.199 617H745.113V624.887H727.468C725.199 624.887 724.064 626.014 724.064 628.268V629.394C724.064 631.648 725.199 632.775 727.468 632.775H737.681C741.388 632.775 744.111 633.638 745.851 635.366C747.591 637.094 748.461 639.798 748.461 643.479V646.296C748.461 649.977 747.591 652.681 745.851 654.408C744.111 656.136 741.388 657 737.681 657C735.752 657 733.709 656.962 731.553 656.887L726.333 656.662C722.475 656.474 718.485 656.211 714.362 655.873V648.268Z" fill="white"/>
<path d="M772.286 656.437H751.861V648.549H756.967V624.887H751.861V617H772.286V624.887H767.18V648.549H772.286V656.437Z" fill="white"/>
<path d="M811.998 656.437H801.218L787.601 632.775V656.437H777.388V617H788.168L801.785 640.662V617H811.998V656.437Z" fill="white"/>
<path d="M852.876 655.592C844.025 656.531 835.892 657 828.479 657C824.772 657 822.048 656.136 820.308 654.408C818.568 652.681 817.698 649.977 817.698 646.296V628.268C817.698 624.324 818.587 621.469 820.365 619.704C822.181 617.901 825.074 617 829.046 617H849.471V624.887H831.315C829.046 624.887 827.911 626.014 827.911 628.268V646.296C827.911 647.16 828.157 647.854 828.649 648.38C829.178 648.869 829.878 649.113 830.748 649.113C835.098 649.113 839.07 649.019 842.663 648.831V640.662H835.287V633.901H852.876V655.592Z" fill="white"/>
<path d="M904.507 617L911.315 642.352L917.273 617H928.337L917.556 656.437H906.776L899.968 631.93L893.159 656.437H882.379L871.599 617H882.663L888.62 642.352L895.429 617H904.507Z" fill="white"/>
<path d="M962.689 656.437H931.2V617H962.689V624.887H941.413V632.493H958.15V640.38H941.413V648.549H962.689V656.437Z" fill="white"/>
<path d="M967.215 617H989.91C993.617 617 996.34 617.845 998.08 619.535C999.82 621.188 1000.69 623.723 1000.69 627.141C1000.69 629.394 1000.2 631.235 999.215 632.662C998.232 634.052 997.021 635.028 995.584 635.592C998.648 636.418 1000.73 638.446 1001.82 641.676C1002.2 642.84 1002.39 644.192 1002.39 645.732C1002.39 649.413 1001.52 652.117 999.782 653.845C998.042 655.573 995.319 656.437 991.612 656.437H967.215V617ZM992.18 644.042C992.18 641.789 991.045 640.662 988.775 640.662H977.428V648.549H988.775C991.045 648.549 992.18 647.423 992.18 645.169V644.042ZM990.477 628.268C990.477 626.014 989.343 624.887 987.073 624.887H977.428V632.775H987.073C989.343 632.775 990.477 631.648 990.477 629.394V628.268Z" fill="white"/>
<path d="M1026.22 657C1019.9 657 1012.91 656.624 1005.23 655.873V648.268C1013.59 648.831 1019.83 649.113 1023.95 649.113C1024.82 649.113 1025.5 648.869 1025.99 648.38C1026.52 647.854 1026.79 647.16 1026.79 646.296V644.042C1026.79 641.789 1025.65 640.662 1023.38 640.662H1011.47V632.775H1022.25C1024.52 632.775 1025.65 631.648 1025.65 629.394V628.268C1025.65 626.014 1024.52 624.887 1022.25 624.887H1005.79V617H1025.09C1028.79 617 1031.52 617.845 1033.26 619.535C1035 621.188 1035.87 623.723 1035.87 627.141C1035.87 629.394 1035.34 631.235 1034.28 632.662C1033.26 634.052 1031.89 635.028 1030.19 635.592C1033.26 636.418 1035.34 638.446 1036.43 641.676C1036.81 642.84 1037 644.192 1037 645.732V646.296C1037 649.977 1036.13 652.681 1034.39 654.408C1032.65 656.136 1029.93 657 1026.22 657Z" fill="white"/>
<path d="M549 476H1158V572H549V476Z" fill="#299BFD"/>
<path d="M609.078 545.431H598L613.055 505.569H624.418L639.473 545.431H628.394L625.838 538.313H611.635L609.078 545.431ZM614.191 530.91H623.281L618.736 517.528L614.191 530.91Z" fill="#121212"/>
<path d="M666.767 505.569H676.993V534.611C676.993 538.597 676.084 541.501 674.266 543.324C672.486 545.108 669.608 546 665.631 546H652.564C648.587 546 645.69 545.108 643.872 543.324C642.092 541.501 641.202 538.597 641.202 534.611V505.569H651.428V534.611C651.428 536.889 652.564 538.028 654.836 538.028H663.358C665.631 538.028 666.767 536.889 666.767 534.611V505.569Z" fill="#121212"/>
<path d="M703.127 545.431H692.901V513.542H680.97V505.569H715.057V513.542H703.127V545.431Z" fill="#121212"/>
<path d="M753.696 545.431H743.47V529.201H729.267V545.431H719.041V505.569H729.267V521.229H743.47V505.569H753.696V545.431Z" fill="#121212"/>
<path d="M792.071 545.431H760.54V505.569H792.071V513.542H770.766V521.229H787.526V529.201H770.766V537.458H792.071V545.431Z" fill="#121212"/>
<path d="M831.258 545.431H820.464L806.829 521.514V545.431H796.602V505.569H807.397L821.032 529.486V505.569H831.258V545.431Z" fill="#121212"/>
<path d="M857.418 545.431H847.192V513.542H835.261V505.569H869.349V513.542H857.418V545.431Z" fill="#121212"/>
<path d="M892.08 545.431H871.628V537.458H876.741V513.542H871.628V505.569H892.08V513.542H886.967V537.458H892.08V545.431Z" fill="#121212"/>
<path d="M927.867 544.861C919.421 545.62 912.414 546 906.847 546C903.135 546 900.408 545.127 898.666 543.381C896.924 541.634 896.052 538.901 896.052 535.181V516.958C896.052 512.972 896.942 510.087 898.723 508.303C900.541 506.481 903.438 505.569 907.415 505.569H927.867V513.542H909.687C907.415 513.542 906.279 514.681 906.279 516.958V535.181C906.279 536.054 906.525 536.756 907.017 537.288C907.547 537.781 908.21 538.028 909.006 538.028C909.801 538.028 910.672 538.028 911.619 538.028C912.566 537.99 913.551 537.952 914.573 537.914C915.596 537.876 916.618 537.838 917.641 537.8C918.701 537.762 920.046 537.686 921.675 537.572C923.341 537.458 925.405 537.325 927.867 537.174V544.861Z" fill="#121212"/>
<path d="M939.52 545.431H928.442L943.497 505.569H954.86L969.915 545.431H958.836L956.28 538.313H942.077L939.52 545.431ZM944.633 530.91H953.723L949.178 517.528L944.633 530.91Z" fill="#121212"/>
<path d="M988.075 545.431H977.848V513.542H965.918V505.569H1000.01V513.542H988.075V545.431Z" fill="#121212"/>
<path d="M1022.74 545.431H1002.28V537.458H1007.4V513.542H1002.28V505.569H1022.74V513.542H1017.62V537.458H1022.74V545.431Z" fill="#121212"/>
<path d="M1053.41 516.389C1053.41 514.111 1052.27 512.972 1050 512.972H1040.34C1038.07 512.972 1036.94 514.111 1036.94 516.389V534.611C1036.94 536.889 1038.07 538.028 1040.34 538.028H1050C1052.27 538.028 1053.41 536.889 1053.41 534.611V516.389ZM1063.64 534.611C1063.64 538.597 1062.73 541.501 1060.91 543.324C1059.13 545.108 1056.25 546 1052.27 546H1038.07C1034.09 546 1031.2 545.108 1029.38 543.324C1027.6 541.501 1026.71 538.597 1026.71 534.611V516.389C1026.71 512.403 1027.6 509.518 1029.38 507.733C1031.2 505.911 1034.09 505 1038.07 505H1052.27C1056.25 505 1059.13 505.911 1060.91 507.733C1062.73 509.518 1063.64 512.403 1063.64 516.389V534.611Z" fill="#121212"/>
<path d="M1104 545.431H1093.21L1079.57 521.514V545.431H1069.34V505.569H1080.14L1093.77 529.486V505.569H1104V545.431Z" fill="#121212"/>
<path d="M472 294H1228V436H472V294Z" fill="#FF43AC"/>
<path d="M518 335.806H551.619C557.222 335.806 561.278 337.094 563.786 339.672C566.348 342.196 567.628 346.278 567.628 351.917V359.972C567.628 365.611 566.348 369.719 563.786 372.297C561.278 374.821 557.222 376.083 551.619 376.083H532.408V392.194H518V335.806ZM553.22 351.917C553.22 348.694 551.619 347.083 548.417 347.083H532.408V364.806H548.417C551.619 364.806 553.22 363.194 553.22 359.972V351.917Z" fill="#121212"/>
<path d="M580.067 392.194H564.458L585.67 335.806H601.679L622.891 392.194H607.282L603.68 382.125H583.669L580.067 392.194ZM587.271 371.653H600.078L593.675 352.722L587.271 371.653Z" fill="#121212"/>
<path d="M625.209 380.514C639.831 381.319 649.73 381.722 654.906 381.722C656.134 381.722 657.094 381.373 657.788 380.675C658.535 379.923 658.909 378.93 658.909 377.694V370.444H640.498C634.895 370.444 630.813 369.182 628.251 366.658C625.743 364.081 624.489 359.972 624.489 354.333V351.917C624.489 346.278 625.743 342.196 628.251 339.672C630.813 337.094 634.895 335.806 640.498 335.806H668.594V347.083H643.7C640.498 347.083 638.897 348.694 638.897 351.917V353.528C638.897 356.75 640.498 358.361 643.7 358.361H658.108C663.338 358.361 667.18 359.596 669.635 362.067C672.09 364.537 673.317 368.404 673.317 373.667V377.694C673.317 382.957 672.09 386.824 669.635 389.294C667.18 391.765 663.338 393 658.108 393C655.387 393 652.505 392.946 649.463 392.839L642.099 392.517C636.656 392.248 631.026 391.872 625.209 391.389V380.514Z" fill="#121212"/>
<path d="M678.834 380.514C693.456 381.319 703.355 381.722 708.531 381.722C709.758 381.722 710.719 381.373 711.413 380.675C712.16 379.923 712.533 378.93 712.533 377.694V370.444H694.123C688.519 370.444 684.437 369.182 681.876 366.658C679.368 364.081 678.114 359.972 678.114 354.333V351.917C678.114 346.278 679.368 342.196 681.876 339.672C684.437 337.094 688.519 335.806 694.123 335.806H722.219V347.083H697.325C694.123 347.083 692.522 348.694 692.522 351.917V353.528C692.522 356.75 694.123 358.361 697.325 358.361H711.733C716.962 358.361 720.805 359.596 723.259 362.067C725.714 364.537 726.941 368.404 726.941 373.667V377.694C726.941 382.957 725.714 386.824 723.259 389.294C720.805 391.765 716.962 393 711.733 393C709.011 393 706.13 392.946 703.088 392.839L695.724 392.517C690.28 392.248 684.651 391.872 678.834 391.389V380.514Z" fill="#121212"/>
<path d="M772.539 335.806L782.145 372.056L790.55 335.806H806.159L790.95 392.194H775.741L766.136 357.153L756.53 392.194H741.322L726.113 335.806H741.722L750.127 372.056L759.732 335.806H772.539Z" fill="#121212"/>
<path d="M846.219 351.111C846.219 347.889 844.618 346.278 841.416 346.278H827.809C824.607 346.278 823.006 347.889 823.006 351.111V376.889C823.006 380.111 824.607 381.722 827.809 381.722H841.416C844.618 381.722 846.219 380.111 846.219 376.889V351.111ZM860.627 376.889C860.627 382.528 859.347 386.636 856.785 389.214C854.277 391.738 850.221 393 844.618 393H824.607C819.004 393 814.921 391.738 812.36 389.214C809.852 386.636 808.598 382.528 808.598 376.889V351.111C808.598 345.472 809.852 341.391 812.36 338.867C814.921 336.289 819.004 335 824.607 335H844.618C850.221 335 854.277 336.289 856.785 338.867C859.347 341.391 860.627 345.472 860.627 351.111V376.889Z" fill="#121212"/>
<path d="M868.669 335.806H902.289C907.892 335.806 911.948 337.094 914.456 339.672C917.017 342.196 918.298 346.278 918.298 351.917V359.167C918.298 363.624 917.551 367.088 916.057 369.558C914.616 372.029 912.294 373.667 909.093 374.472L919.098 392.194H903.489L894.284 375.278H883.078V392.194H868.669V335.806ZM903.89 351.917C903.89 348.694 902.289 347.083 899.087 347.083H883.078V364H899.087C902.289 364 903.89 362.389 903.89 359.167V351.917Z" fill="#121212"/>
<path d="M957.498 335.806C963.529 335.806 968.091 337.39 971.186 340.558C974.335 343.673 975.909 348.265 975.909 354.333V373.667C975.909 379.735 974.335 384.354 971.186 387.522C968.091 390.637 963.529 392.194 957.498 392.194H926.281V335.806H957.498ZM961.501 354.333C961.501 349.5 959.099 347.083 954.297 347.083H940.689V380.917H954.297C959.099 380.917 961.501 378.5 961.501 373.667V354.333Z" fill="#121212"/>
<path d="M998.3 380.917H1027.52V392.194H983.892V335.806H998.3V380.917Z" fill="#121212"/>
<path d="M1077.56 392.194H1033.14V335.806H1077.56V347.083H1047.55V357.958H1071.16V369.236H1047.55V380.917H1077.56V392.194Z" fill="#121212"/>
<path d="M1082.27 380.514C1096.89 381.319 1106.79 381.722 1111.97 381.722C1113.19 381.722 1114.15 381.373 1114.85 380.675C1115.59 379.923 1115.97 378.93 1115.97 377.694V370.444H1097.56C1091.95 370.444 1087.87 369.182 1085.31 366.658C1082.8 364.081 1081.55 359.972 1081.55 354.333V351.917C1081.55 346.278 1082.8 342.196 1085.31 339.672C1087.87 337.094 1091.95 335.806 1097.56 335.806H1125.65V347.083H1100.76C1097.56 347.083 1095.96 348.694 1095.96 351.917V353.528C1095.96 356.75 1097.56 358.361 1100.76 358.361H1115.17C1120.4 358.361 1124.24 359.596 1126.69 362.067C1129.15 364.537 1130.38 368.404 1130.38 373.667V377.694C1130.38 382.957 1129.15 386.824 1126.69 389.294C1124.24 391.765 1120.4 393 1115.17 393C1112.45 393 1109.56 392.946 1106.52 392.839L1099.16 392.517C1093.71 392.248 1088.08 391.872 1082.27 391.389V380.514Z" fill="#121212"/>
<path d="M1135.89 380.514C1150.51 381.319 1160.41 381.722 1165.59 381.722C1166.82 381.722 1167.78 381.373 1168.47 380.675C1169.22 379.923 1169.59 378.93 1169.59 377.694V370.444H1151.18C1145.58 370.444 1141.5 369.182 1138.93 366.658C1136.43 364.081 1135.17 359.972 1135.17 354.333V351.917C1135.17 346.278 1136.43 342.196 1138.93 339.672C1141.5 337.094 1145.58 335.806 1151.18 335.806H1179.28V347.083H1154.38C1151.18 347.083 1149.58 348.694 1149.58 351.917V353.528C1149.58 356.75 1151.18 358.361 1154.38 358.361H1168.79C1174.02 358.361 1177.86 359.596 1180.32 362.067C1182.77 364.537 1184 368.404 1184 373.667V377.694C1184 382.957 1182.77 386.824 1180.32 389.294C1177.86 391.765 1174.02 393 1168.79 393C1166.07 393 1163.19 392.946 1160.15 392.839L1152.78 392.517C1147.34 392.248 1141.71 391.872 1135.89 391.389V380.514Z" fill="#121212"/>
</svg>
