<svg width="268" height="80" viewBox="0 0 268 80" fill="none" xmlns="http://www.w3.org/2000/svg">
<path d="M13.04 35.28H0.0400391V31.84L3.52004 30.24V11.76L0.0400391 10.16V6.72001H13.04V10.16L9.56004 11.76V30.24L13.04 31.84V35.28Z" fill="#01336C"/>
<path d="M43.0269 11.36C41.8803 11.36 40.8536 11.5867 39.9469 12.04C39.0669 12.4933 38.3203 13.1467 37.7069 14C37.0936 14.8267 36.6269 15.84 36.3069 17.04C36.0136 18.24 35.8669 19.5867 35.8669 21.08C35.8669 23.1067 36.1069 24.84 36.5869 26.28C37.0936 27.6933 37.8802 28.7733 38.9469 29.52C40.0136 30.2667 41.3736 30.64 43.0269 30.64C44.2002 30.64 45.3602 30.5067 46.5069 30.24C47.6803 29.9733 48.9469 29.6 50.3069 29.12V34.2C49.0536 34.7067 47.8136 35.08 46.5869 35.32C45.3603 35.56 43.9869 35.68 42.4669 35.68C39.5336 35.68 37.1069 35.08 35.1869 33.88C33.2936 32.6533 31.8936 30.9467 30.9869 28.76C30.0802 26.5467 29.6269 23.9733 29.6269 21.04C29.6269 18.88 29.9202 16.9067 30.5069 15.12C31.0936 13.3067 31.9469 11.7467 33.0669 10.44C34.2136 9.13334 35.6136 8.12001 37.2669 7.40001C38.9469 6.68001 40.8669 6.32001 43.0269 6.32001C44.4402 6.32001 45.8536 6.50667 47.2669 6.88001C48.7069 7.22667 50.0802 7.70667 51.3869 8.32001L49.4269 13.24C48.3603 12.7333 47.2802 12.2933 46.1869 11.92C45.1202 11.5467 44.0669 11.36 43.0269 11.36Z" fill="#01336C"/>
<path d="M86.8557 35.28L84.7757 28.48H74.3757L72.2957 35.28H65.7757L75.8557 6.60001H83.2557L93.3757 35.28H86.8557ZM81.2557 16.76C81.1223 16.3067 80.949 15.7333 80.7357 15.04C80.5223 14.3467 80.309 13.64 80.0957 12.92C79.8823 12.2 79.709 11.5733 79.5757 11.04C79.4423 11.5733 79.2557 12.24 79.0157 13.04C78.8023 13.8133 78.589 14.56 78.3757 15.28C78.189 15.9733 78.0423 16.4667 77.9357 16.76L75.8957 23.4H83.3357L81.2557 16.76Z" fill="#01336C"/>
<path d="M135.313 35.28H127.633L115.193 13.68H115.033C115.06 14.3467 115.086 15.0267 115.113 15.72C115.14 16.3867 115.166 17.0667 115.193 17.76C115.246 18.4267 115.286 19.1067 115.313 19.8C115.34 20.4667 115.366 21.1467 115.393 21.84V35.28H109.993V6.72001H117.633L130.033 28.12H130.153C130.126 27.4533 130.1 26.8 130.073 26.16C130.046 25.4933 130.02 24.84 129.993 24.2C129.993 23.5333 129.98 22.88 129.953 22.24C129.926 21.5733 129.9 20.9067 129.873 20.24V6.72001H135.313V35.28Z" fill="#01336C"/>
<path d="M180.852 35.28H173.172L160.732 13.68H160.572C160.599 14.3467 160.625 15.0267 160.652 15.72C160.679 16.3867 160.705 17.0667 160.732 17.76C160.785 18.4267 160.825 19.1067 160.852 19.8C160.879 20.4667 160.905 21.1467 160.932 21.84V35.28H155.532V6.72001H163.172L175.572 28.12H175.692C175.665 27.4533 175.639 26.8 175.612 26.16C175.585 25.4933 175.559 24.84 175.532 24.2C175.532 23.5333 175.519 22.88 175.492 22.24C175.465 21.5733 175.439 20.9067 175.412 20.24V6.72001H180.852V35.28Z" fill="#01336C"/>
<path d="M210.2 35.28L220.92 11.8H206.84V6.72H227.32V10.52L216.52 35.28H210.2Z" fill="#01336C"/>
<path d="M253.651 17.04C255.384 17.04 256.931 17.3733 258.291 18.04C259.651 18.7067 260.717 19.68 261.491 20.96C262.291 22.24 262.691 23.8267 262.691 25.72C262.691 27.7733 262.264 29.5467 261.411 31.04C260.557 32.5333 259.277 33.68 257.571 34.48C255.891 35.28 253.797 35.68 251.291 35.68C249.797 35.68 248.384 35.5467 247.051 35.28C245.744 35.0133 244.597 34.6267 243.611 34.12V28.92C244.597 29.4267 245.784 29.8667 247.171 30.24C248.557 30.5867 249.864 30.76 251.091 30.76C252.291 30.76 253.291 30.6 254.091 30.28C254.917 29.96 255.544 29.4667 255.971 28.8C256.397 28.1333 256.611 27.28 256.611 26.24C256.611 24.8267 256.144 23.76 255.211 23.04C254.277 22.2933 252.837 21.92 250.891 21.92C250.144 21.92 249.371 22 248.571 22.16C247.771 22.2933 247.104 22.4267 246.571 22.56L244.171 21.28L245.251 6.72H260.731V11.84H250.531L250.011 17.44C250.464 17.36 250.944 17.28 251.451 17.2C251.984 17.0933 252.717 17.04 253.651 17.04Z" fill="#01336C"/>
<path d="M189.64 0H193.92V39.36H189.64V0Z" fill="#01336C"/>
<path d="M20.664 79.28H14.472L7.74 68.444L5.436 70.1V79.28H0V53.576H5.436V65.348C5.796 64.844 6.156 64.34 6.516 63.836C6.876 63.332 7.236 62.828 7.596 62.324L14.544 53.576H20.592L11.628 64.952L20.664 79.28Z" fill="#01336C"/>
<path d="M43.5622 70.208C43.5622 71.984 43.1662 73.592 42.3742 75.032C41.6062 76.448 40.4302 77.576 38.8462 78.416C37.2862 79.232 35.3062 79.64 32.9062 79.64C29.4982 79.64 26.9063 78.776 25.1303 77.048C23.3543 75.296 22.4662 72.992 22.4662 70.136V53.576H27.9023V69.308C27.9023 71.42 28.3343 72.908 29.1983 73.772C30.0623 74.636 31.3462 75.068 33.0502 75.068C34.2502 75.068 35.2222 74.864 35.9662 74.456C36.7102 74.048 37.2502 73.412 37.5862 72.548C37.9462 71.684 38.1263 70.592 38.1263 69.272V53.576H43.5622V70.208Z" fill="#01336C"/>
<path d="M63.9776 79.28L62.1056 73.16H52.7456L50.8736 79.28H45.0056L54.0776 53.468H60.7376L69.8456 79.28H63.9776ZM58.9376 62.612C58.8176 62.204 58.6616 61.688 58.4696 61.064C58.2776 60.44 58.0856 59.804 57.8936 59.156C57.7016 58.508 57.5456 57.944 57.4256 57.464C57.3056 57.944 57.1376 58.544 56.9216 59.264C56.7296 59.96 56.5376 60.632 56.3456 61.28C56.1776 61.904 56.0456 62.348 55.9496 62.612L54.1136 68.588H60.8096L58.9376 62.612Z" fill="#01336C"/>
<path d="M71.8411 79.28V53.576H77.2771V74.78H87.7171V79.28H71.8411Z" fill="#01336C"/>
<path d="M106.669 79.28L104.797 73.16H95.4366L93.5646 79.28H87.6966L96.7686 53.468H103.429L112.537 79.28H106.669ZM101.629 62.612C101.509 62.204 101.353 61.688 101.161 61.064C100.969 60.44 100.777 59.804 100.585 59.156C100.393 58.508 100.237 57.944 100.117 57.464C99.9966 57.944 99.8286 58.544 99.6126 59.264C99.4206 59.96 99.2286 60.632 99.0366 61.28C98.8686 61.904 98.7366 62.348 98.6406 62.612L96.8046 68.588H103.501L101.629 62.612Z" fill="#01336C"/>
<path d="M122.624 79.28V53.576H128.06V74.78H138.5V79.28H122.624Z" fill="#01336C"/>
<path d="M162.283 70.208C162.283 71.984 161.887 73.592 161.095 75.032C160.327 76.448 159.151 77.576 157.567 78.416C156.007 79.232 154.027 79.64 151.627 79.64C148.219 79.64 145.627 78.776 143.851 77.048C142.075 75.296 141.187 72.992 141.187 70.136V53.576H146.623V69.308C146.623 71.42 147.055 72.908 147.919 73.772C148.783 74.636 150.067 75.068 151.771 75.068C152.971 75.068 153.943 74.864 154.687 74.456C155.431 74.048 155.971 73.412 156.307 72.548C156.667 71.684 156.847 70.592 156.847 69.272V53.576H162.283V70.208Z" fill="#01336C"/>
<path d="M178.19 79.28L171.998 59.12H171.854C171.878 59.6 171.914 60.32 171.962 61.28C172.01 62.24 172.058 63.272 172.106 64.376C172.154 65.456 172.178 66.44 172.178 67.328V79.28H167.318V53.576H174.734L180.818 73.232H180.926L187.37 53.576H194.786V79.28H189.71V67.112C189.71 66.296 189.722 65.36 189.746 64.304C189.794 63.248 189.83 62.252 189.854 61.316C189.902 60.356 189.938 59.636 189.962 59.156H189.818L183.194 79.28H178.19Z" fill="#01336C"/>
<path d="M208.227 53.576C211.539 53.576 213.951 54.296 215.463 55.736C216.999 57.152 217.767 59.108 217.767 61.604C217.767 62.732 217.599 63.812 217.263 64.844C216.927 65.852 216.363 66.764 215.571 67.58C214.803 68.372 213.783 68.996 212.511 69.452C211.239 69.908 209.667 70.136 207.795 70.136H205.455V79.28H200.019V53.576H208.227ZM207.939 58.04H205.455V65.672H207.255C208.287 65.672 209.175 65.54 209.919 65.276C210.663 65.012 211.239 64.592 211.647 64.016C212.055 63.44 212.259 62.696 212.259 61.784C212.259 60.512 211.911 59.576 211.215 58.976C210.519 58.352 209.427 58.04 207.939 58.04Z" fill="#01336C"/>
<path d="M242.281 70.208C242.281 71.984 241.885 73.592 241.093 75.032C240.325 76.448 239.149 77.576 237.565 78.416C236.005 79.232 234.025 79.64 231.625 79.64C228.217 79.64 225.625 78.776 223.849 77.048C222.073 75.296 221.185 72.992 221.185 70.136V53.576H226.621V69.308C226.621 71.42 227.053 72.908 227.917 73.772C228.781 74.636 230.065 75.068 231.769 75.068C232.969 75.068 233.941 74.864 234.685 74.456C235.429 74.048 235.969 73.412 236.305 72.548C236.665 71.684 236.845 70.592 236.845 69.272V53.576H242.281V70.208Z" fill="#01336C"/>
<path d="M254.804 53.576C257.132 53.576 259.052 53.864 260.564 54.44C262.076 54.992 263.204 55.844 263.948 56.996C264.692 58.124 265.064 59.552 265.064 61.28C265.064 62.456 264.836 63.488 264.38 64.376C263.948 65.24 263.36 65.984 262.616 66.608C261.896 67.208 261.116 67.7 260.276 68.084L267.836 79.28H261.788L255.668 69.416H252.752V79.28H247.316V53.576H254.804ZM254.408 58.04H252.752V64.988H254.516C255.716 64.988 256.688 64.856 257.432 64.592C258.176 64.328 258.716 63.932 259.052 63.404C259.388 62.852 259.556 62.192 259.556 61.424C259.556 60.608 259.364 59.96 258.98 59.48C258.62 58.976 258.056 58.616 257.288 58.4C256.544 58.16 255.584 58.04 254.408 58.04Z" fill="#01336C"/>
</svg>
