<svg id="LOGOS" xmlns="http://www.w3.org/2000/svg" viewBox="0 0 377 132"><defs><style>.cls-1{fill:#fff;}.cls-2{fill:#f24c53;}</style></defs><path class="cls-1" d="M139.61,71c3.09-1.33,4.48-3.21,4.48-6.53V60.27c0-5.44-3.08-8.59-10.71-8.59H117.53V92h16.94c7.32,0,11-3.56,11-9.25v-4.3A7.09,7.09,0,0,0,139.61,71ZM125.15,58h7.32c2.79,0,4,1,4,3.27v3.57c0,2.36-1.09,3.75-4.06,3.75h-7.26Zm12.71,23.78c0,3-1.45,3.93-4.9,3.93h-7.81v-11h8.47c3,0,4.24,1.33,4.24,4.06Z"/><path class="cls-1" d="M161.52,61.9c-10.11,0-12.83,5.57-12.83,11.62V81c0,6.05,2.72,11.62,12.83,11.62S174.34,87,174.34,81V73.52C174.34,67.47,171.62,61.9,161.52,61.9ZM167,81.21c0,3.32-1.51,5.08-5.44,5.08s-5.45-1.76-5.45-5.08V73.28c0-3.33,1.51-5.08,5.45-5.08S167,70,167,73.28Z"/><path class="cls-1" d="M196.49,62.51V83c-2.67,1.39-5.87,2.48-7.69,2.48s-2.35-.78-2.35-2.36V62.51h-7.39V83.87c0,5.26,1.75,8.71,6.66,8.71a29.49,29.49,0,0,0,11.8-3.09l.72,2.48h5.63V62.51Z"/><path class="cls-1" d="M228.37,61.9A29.65,29.65,0,0,0,216.57,65l-.72-2.48h-5.63V92h7.38V71.53c2.66-1.39,5.87-2.48,7.69-2.48s2.35.78,2.35,2.35V92H235V70.62C235,65.35,233.28,61.9,228.37,61.9Z"/><path class="cls-1" d="M257.47,50.47V62.76a40.09,40.09,0,0,0-7.86-.86c-6.83,0-9.74,3.88-9.74,10.41v10c0,6.71,3.14,10.22,9.07,10.22a15.47,15.47,0,0,0,9.32-3.09L259,92h5.87V49.45Zm0,33.16a10.41,10.41,0,0,1-6.59,2.66c-2.72,0-3.63-1.33-3.63-3.75V72.13c0-2.66,1-3.93,3.69-3.93a32.15,32.15,0,0,1,6.53.79Z"/><path class="cls-1" d="M280.77,61.9a38.39,38.39,0,0,0-10.11,1.4l.91,5.62a41.63,41.63,0,0,1,8.17-.9c4.72,0,5.63,1.15,5.63,4.42v3.08h-7.08c-6,0-8.6,2.3-8.6,8.29,0,5.08,2.3,8.77,7.69,8.77a16.2,16.2,0,0,0,8.78-2.6l.54,2h6.05V72.55C292.75,65.17,290,61.9,280.77,61.9Zm4.6,23.3a11.61,11.61,0,0,1-5.57,1.51c-2.3,0-3-.9-3-3,0-2.24.66-2.9,3.08-2.9h5.45Z"/><path class="cls-1" d="M313,61.9a33.33,33.33,0,0,0-7.75,3.88l-.48-3.27H298.5V92h7.38V73a57.14,57.14,0,0,1,7.8-4.3Z"/><path class="cls-1" d="M335.65,62.51,328.87,84.9l-6.71-22.39h-7.57L323.91,92h2.6l-3.69,11.93h7L333.77,92l9.44-29.46Z"/><polygon class="cls-2" points="44.8 102.75 44.8 97.95 54.76 97.95 54.76 95 49.93 95 49.93 90.17 72.73 90.17 62.14 71.83 72.73 53.48 49.36 53.48 49.36 78.92 36.78 78.92 36.78 40.91 80.07 40.91 87.29 53.42 76.66 71.83 87.51 90.61 80.5 102.75 44.8 102.75"/><rect class="cls-2" x="41.91" y="90.17" width="4.83" height="4.83"/><rect class="cls-2" x="36.78" y="97.92" width="4.83" height="4.83"/><path class="cls-1" d="M125.42,41.79V36.13h-5.17v5.66h-2.64V28.2h2.64v5.7h5.17V28.2h2.65V41.79Zm12.33,0h-2.1l-.19-.66a5.77,5.77,0,0,1-3,.86c-1.86,0-2.66-1.23-2.66-2.92,0-2,.9-2.75,3-2.75h2.45v-1c0-1.09-.31-1.47-1.95-1.47a14.94,14.94,0,0,0-2.83.3l-.31-1.87a13.9,13.9,0,0,1,3.5-.46c3.2,0,4.15,1.08,4.15,3.54Zm-2.56-3.7H133.3c-.83,0-1.06.22-1.06,1s.23,1,1,1a4.15,4.15,0,0,0,1.93-.5ZM143.1,42a12.59,12.59,0,0,1-3.52-.56l.36-1.87a11.94,11.94,0,0,0,3,.42c1.13,0,1.3-.24,1.3-1s-.13-.9-1.78-1.29c-2.5-.58-2.79-1.18-2.79-3.07s.9-2.84,3.81-2.84a14,14,0,0,1,3.06.34l-.25,1.95a18.71,18.71,0,0,0-2.81-.28c-1.11,0-1.3.24-1.3.85,0,.78.07.84,1.45,1.18,2.85.73,3.12,1.09,3.12,3.1S146.18,42,143.1,42Zm11.71-.2V35c0-.53-.23-.79-.82-.79a7.12,7.12,0,0,0-2.66.83v6.8h-2.56V28l2.56.38v4.34a9.34,9.34,0,0,1,3.73-.94c1.7,0,2.31,1.15,2.31,2.9v7.1Zm4.7-11.19V28.2h2.56v2.4Zm0,11.19V32h2.56v9.8Zm4.6-9.72c0-2.46,1.49-3.88,5-3.88a16.47,16.47,0,0,1,3.79.44l-.29,2.19a21.49,21.49,0,0,0-3.42-.34c-1.82,0-2.41.6-2.41,2v5.15c0,1.43.59,2,2.41,2a20.46,20.46,0,0,0,3.42-.35l.29,2.2a16.47,16.47,0,0,1-3.79.44c-3.48,0-5-1.43-5-3.88ZM178.52,42c-3.5,0-4.44-1.85-4.44-3.86V35.65c0-2,.94-3.86,4.44-3.86S183,33.64,183,35.65v2.48C183,40.14,182,42,178.52,42Zm0-8.11c-1.36,0-1.89.58-1.89,1.69v2.64c0,1.1.53,1.69,1.89,1.69s1.89-.59,1.89-1.69V35.57C180.41,34.46,179.88,33.88,178.52,33.88Zm11.64.16a20.53,20.53,0,0,0-2.7,1.43v6.32H184.9V32h2.16l.17,1.09a11.15,11.15,0,0,1,2.68-1.29Zm10.22,4.49c0,2.17-1,3.46-3.37,3.46a14.85,14.85,0,0,1-2.73-.28v4l-2.55.39V32h2l.25.82a5.54,5.54,0,0,1,3.23-1c2,0,3.14,1.17,3.14,3.4Zm-6.1,1.11a12,12,0,0,0,2.27.26c.92,0,1.28-.42,1.28-1.31V35.13c0-.81-.32-1.25-1.26-1.25a3.68,3.68,0,0,0-2.29.89Z"/></svg>