<svg width="556" height="172" viewBox="0 0 556 172" fill="none" xmlns="http://www.w3.org/2000/svg">
<g clip-path="url(#clip0_722_729)">
<path d="M64.5013 42.666V85.666H50.168V99.9993H64.5013V114.332H50.168V128.666H64.5013V142.999H78.8346V42.666H64.5013ZM25.0846 114.332H21.5013V99.9993H25.0846V85.666H50.168V71.3326H21.5013V85.666H10.7513V99.9993H7.16797V114.332H10.7513V128.666H21.5013V142.999H50.168V128.666H25.0846V114.332ZM114.612 42.666V56.9993H128.945V42.666H114.612ZM128.945 128.666V71.3326H100.278V85.666H114.612V142.999H143.278V128.666H128.945ZM222.168 42.666V85.666H207.834V99.9993H222.168V114.332H207.834V128.666H222.168V142.999H236.501V42.666H222.168ZM182.751 114.332H179.168V99.9993H182.751V85.666H207.834V71.3326H179.168V85.666H168.418V99.9993H164.834V114.332H168.418V128.666H179.168V142.999H207.834V128.666H182.751V114.332ZM272.278 85.666V71.3326H257.945V85.666H272.278ZM272.278 142.999V128.666H257.945V142.999H272.278ZM351.14 42.666V85.666H336.806V99.9993H351.14V114.332H336.806V128.666H351.14V142.999H365.473V42.666H351.14ZM311.723 114.332H308.14V99.9993H311.723V85.666H336.806V71.3326H308.14V85.666H297.39V99.9993H293.806V114.332H297.39V128.666H308.14V142.999H336.806V128.666H311.723V114.332ZM440.667 71.3326H397.667V85.666H440.667V71.3326ZM455 128.666V85.666H440.667V99.9993H397.667V114.332H386.917V128.666H397.667V142.999H440.667V128.666H401.25V114.332H440.667V128.666H447.834V142.999H462.167V128.666H455ZM533.834 85.666H530.25V99.9993H526.667V114.332H523.084V128.666H508.75V114.332H505.167V99.9993H501.584V85.666H498V71.3326H483.667V85.666H487.25V99.9993H490.834V114.332H494.417V128.666H501.584V142.999H508.75V157.332H487.25V171.666H515.917V157.332H523.084V142.999H530.25V128.666H537.417V114.332H541V99.9993H544.584V85.666H548.167V71.3326H533.834V85.666Z" fill="#101010"/>
<path d="M64.4998 42.6665V41.7109H63.5442V42.6665H64.4998ZM64.4998 85.6665V86.622H65.4554V85.6665H64.4998ZM50.1665 85.6665V84.7109H49.2109V85.6665H50.1665ZM50.1665 99.9998H49.2109V100.956H50.1665V99.9998ZM64.4998 99.9998H65.4554V99.0442H64.4998V99.9998ZM64.4998 114.333V115.289H65.4554V114.333H64.4998ZM50.1665 114.333V113.378H49.2109V114.333H50.1665ZM50.1665 128.667H49.2109V129.622H50.1665V128.667ZM64.4998 128.667H65.4554V127.711H64.4998V128.667ZM64.4998 143H63.5442V143.956H64.4998V143ZM78.8331 143V143.956H79.7887V143H78.8331ZM78.8331 42.6665H79.7887V41.7109H78.8331V42.6665ZM25.0831 114.333H26.0387V113.378H25.0831V114.333ZM21.4998 114.333H20.5442V115.289H21.4998V114.333ZM21.4998 99.9998V99.0442H20.5442V99.9998H21.4998ZM25.0831 99.9998V100.956H26.0387V99.9998H25.0831ZM25.0831 85.6665V84.7109H24.1276V85.6665H25.0831ZM50.1665 85.6665V86.622H51.122V85.6665H50.1665ZM50.1665 71.3331H51.122V70.3776H50.1665V71.3331ZM21.4998 71.3331V70.3776H20.5442V71.3331H21.4998ZM21.4998 85.6665V86.622H22.4554V85.6665H21.4998ZM10.7498 85.6665V84.7109H9.79427V85.6665H10.7498ZM10.7498 99.9998V100.956H11.7054V99.9998H10.7498ZM7.1665 99.9998V99.0442H6.21094V99.9998H7.1665ZM7.1665 114.333H6.21094V115.289H7.1665V114.333ZM10.7498 114.333H11.7054V113.378H10.7498V114.333ZM10.7498 128.667H9.79427V129.622H10.7498V128.667ZM21.4998 128.667H22.4554V127.711H21.4998V128.667ZM21.4998 143H20.5442V143.956H21.4998V143ZM50.1665 143V143.956H51.122V143H50.1665ZM50.1665 128.667H51.122V127.711H50.1665V128.667ZM25.0831 128.667H24.1276V129.622H25.0831V128.667ZM63.5442 42.6665V85.6665H65.4554V42.6665H63.5442ZM64.4998 84.7109H50.1665V86.622H64.4998V84.7109ZM49.2109 85.6665V99.9998H51.122V85.6665H49.2109ZM50.1665 100.956H64.4998V99.0442H50.1665V100.956ZM63.5442 99.9998V114.333H65.4554V99.9998H63.5442ZM64.4998 113.378H50.1665V115.289H64.4998V113.378ZM49.2109 114.333V128.667H51.122V114.333H49.2109ZM50.1665 129.622H64.4998V127.711H50.1665V129.622ZM63.5442 128.667V143H65.4554V128.667H63.5442ZM64.4998 143.956H78.8331V142.044H64.4998V143.956ZM79.7887 143V42.6665H77.8776V143H79.7887ZM78.8331 41.7109H64.4998V43.622H78.8331V41.7109ZM25.0831 113.378H21.4998V115.289H25.0831V113.378ZM22.4554 114.333V99.9998H20.5442V114.333H22.4554ZM21.4998 100.956H25.0831V99.0442H21.4998V100.956ZM26.0387 99.9998V85.6665H24.1276V99.9998H26.0387ZM25.0831 86.622H50.1665V84.7109H25.0831V86.622ZM51.122 85.6665V71.3331H49.2109V85.6665H51.122ZM50.1665 70.3776H21.4998V72.2887H50.1665V70.3776ZM20.5442 71.3331V85.6665H22.4554V71.3331H20.5442ZM21.4998 84.7109H10.7498V86.622H21.4998V84.7109ZM9.79427 85.6665V99.9998H11.7054V85.6665H9.79427ZM10.7498 99.0442H7.1665V100.956H10.7498V99.0442ZM6.21094 99.9998V114.333H8.12205V99.9998H6.21094ZM7.1665 115.289H10.7498V113.378H7.1665V115.289ZM9.79427 114.333V128.667H11.7054V114.333H9.79427ZM10.7498 129.622H21.4998V127.711H10.7498V129.622ZM20.5442 128.667V143H22.4554V128.667H20.5442ZM21.4998 143.956H50.1665V142.044H21.4998V143.956ZM51.122 143V128.667H49.2109V143H51.122ZM50.1665 127.711H25.0831V129.622H50.1665V127.711ZM26.0387 128.667V114.333H24.1276V128.667H26.0387ZM114.611 42.6665V41.7109H113.655V42.6665H114.611ZM114.611 56.9998H113.655V57.9554H114.611V56.9998ZM128.944 56.9998V57.9554H129.9V56.9998H128.944ZM128.944 42.6665H129.9V41.7109H128.944V42.6665ZM128.944 128.667H127.988V129.622H128.944V128.667ZM128.944 71.3331H129.9V70.3776H128.944V71.3331ZM100.277 71.3331V70.3776H99.3216V71.3331H100.277ZM100.277 85.6665H99.3216V86.622H100.277V85.6665ZM114.611 85.6665H115.566V84.7109H114.611V85.6665ZM114.611 143H113.655V143.956H114.611V143ZM143.277 143V143.956H144.233V143H143.277ZM143.277 128.667H144.233V127.711H143.277V128.667ZM113.655 42.6665V56.9998H115.566V42.6665H113.655ZM114.611 57.9554H128.944V56.0442H114.611V57.9554ZM129.9 56.9998V42.6665H127.988V56.9998H129.9ZM128.944 41.7109H114.611V43.622H128.944V41.7109ZM129.9 128.667V71.3331H127.988V128.667H129.9ZM128.944 70.3776H100.277V72.2887H128.944V70.3776ZM99.3216 71.3331V85.6665H101.233V71.3331H99.3216ZM100.277 86.622H114.611V84.7109H100.277V86.622ZM113.655 85.6665V143H115.566V85.6665H113.655ZM114.611 143.956H143.277V142.044H114.611V143.956ZM144.233 143V128.667H142.322V143H144.233ZM143.277 127.711H128.944V129.622H143.277V127.711ZM222.167 42.6665V41.7109H221.211V42.6665H222.167ZM222.167 85.6665V86.622H223.122V85.6665H222.167ZM207.833 85.6665V84.7109H206.878V85.6665H207.833ZM207.833 99.9998H206.878V100.956H207.833V99.9998ZM222.167 99.9998H223.122V99.0442H222.167V99.9998ZM222.167 114.333V115.289H223.122V114.333H222.167ZM207.833 114.333V113.378H206.878V114.333H207.833ZM207.833 128.667H206.878V129.622H207.833V128.667ZM222.167 128.667H223.122V127.711H222.167V128.667ZM222.167 143H221.211V143.956H222.167V143ZM236.5 143V143.956H237.456V143H236.5ZM236.5 42.6665H237.456V41.7109H236.5V42.6665ZM182.75 114.333H183.706V113.378H182.75V114.333ZM179.167 114.333H178.211V115.289H179.167V114.333ZM179.167 99.9998V99.0442H178.211V99.9998H179.167ZM182.75 99.9998V100.956H183.706V99.9998H182.75ZM182.75 85.6665V84.7109H181.794V85.6665H182.75ZM207.833 85.6665V86.622H208.789V85.6665H207.833ZM207.833 71.3331H208.789V70.3776H207.833V71.3331ZM179.167 71.3331V70.3776H178.211V71.3331H179.167ZM179.167 85.6665V86.622H180.122V85.6665H179.167ZM168.417 85.6665V84.7109H167.461V85.6665H168.417ZM168.417 99.9998V100.956H169.372V99.9998H168.417ZM164.833 99.9998V99.0442H163.878V99.9998H164.833ZM164.833 114.333H163.878V115.289H164.833V114.333ZM168.417 114.333H169.372V113.378H168.417V114.333ZM168.417 128.667H167.461V129.622H168.417V128.667ZM179.167 128.667H180.122V127.711H179.167V128.667ZM179.167 143H178.211V143.956H179.167V143ZM207.833 143V143.956H208.789V143H207.833ZM207.833 128.667H208.789V127.711H207.833V128.667ZM182.75 128.667H181.794V129.622H182.75V128.667ZM221.211 42.6665V85.6665H223.122V42.6665H221.211ZM222.167 84.7109H207.833V86.622H222.167V84.7109ZM206.878 85.6665V99.9998H208.789V85.6665H206.878ZM207.833 100.956H222.167V99.0442H207.833V100.956ZM221.211 99.9998V114.333H223.122V99.9998H221.211ZM222.167 113.378H207.833V115.289H222.167V113.378ZM206.878 114.333V128.667H208.789V114.333H206.878ZM207.833 129.622H222.167V127.711H207.833V129.622ZM221.211 128.667V143H223.122V128.667H221.211ZM222.167 143.956H236.5V142.044H222.167V143.956ZM237.456 143V42.6665H235.544V143H237.456ZM236.5 41.7109H222.167V43.622H236.5V41.7109ZM182.75 113.378H179.167V115.289H182.75V113.378ZM180.122 114.333V99.9998H178.211V114.333H180.122ZM179.167 100.956H182.75V99.0442H179.167V100.956ZM183.706 99.9998V85.6665H181.794V99.9998H183.706ZM182.75 86.622H207.833V84.7109H182.75V86.622ZM208.789 85.6665V71.3331H206.878V85.6665H208.789ZM207.833 70.3776H179.167V72.2887H207.833V70.3776ZM178.211 71.3331V85.6665H180.122V71.3331H178.211ZM179.167 84.7109H168.417V86.622H179.167V84.7109ZM167.461 85.6665V99.9998H169.372V85.6665H167.461ZM168.417 99.0442H164.833V100.956H168.417V99.0442ZM163.878 99.9998V114.333H165.789V99.9998H163.878ZM164.833 115.289H168.417V113.378H164.833V115.289ZM167.461 114.333V128.667H169.372V114.333H167.461ZM168.417 129.622H179.167V127.711H168.417V129.622ZM178.211 128.667V143H180.122V128.667H178.211ZM179.167 143.956H207.833V142.044H179.167V143.956ZM208.789 143V128.667H206.878V143H208.789ZM207.833 127.711H182.75V129.622H207.833V127.711ZM183.706 128.667V114.333H181.794V128.667H183.706ZM272.277 85.6665V86.622H273.233V85.6665H272.277ZM272.277 71.3331H273.233V70.3776H272.277V71.3331ZM257.944 71.3331V70.3776H256.988V71.3331H257.944ZM257.944 85.6665H256.988V86.622H257.944V85.6665ZM272.277 143V143.956H273.233V143H272.277ZM272.277 128.667H273.233V127.711H272.277V128.667ZM257.944 128.667V127.711H256.988V128.667H257.944ZM257.944 143H256.988V143.956H257.944V143ZM273.233 85.6665V71.3331H271.322V85.6665H273.233ZM272.277 70.3776H257.944V72.2887H272.277V70.3776ZM256.988 71.3331V85.6665H258.9V71.3331H256.988ZM257.944 86.622H272.277V84.7109H257.944V86.622ZM273.233 143V128.667H271.322V143H273.233ZM272.277 127.711H257.944V129.622H272.277V127.711ZM256.988 128.667V143H258.9V128.667H256.988ZM257.944 143.956H272.277V142.044H257.944V143.956ZM351.139 42.6665V41.7109H350.183V42.6665H351.139ZM351.139 85.6665V86.622H352.094V85.6665H351.139ZM336.805 85.6665V84.7109H335.85V85.6665H336.805ZM336.805 99.9998H335.85V100.956H336.805V99.9998ZM351.139 99.9998H352.094V99.0442H351.139V99.9998ZM351.139 114.333V115.289H352.094V114.333H351.139ZM336.805 114.333V113.378H335.85V114.333H336.805ZM336.805 128.667H335.85V129.622H336.805V128.667ZM351.139 128.667H352.094V127.711H351.139V128.667ZM351.139 143H350.183V143.956H351.139V143ZM365.472 143V143.956H366.428V143H365.472ZM365.472 42.6665H366.428V41.7109H365.472V42.6665ZM311.722 114.333H312.678V113.378H311.722V114.333ZM308.139 114.333H307.183V115.289H308.139V114.333ZM308.139 99.9998V99.0442H307.183V99.9998H308.139ZM311.722 99.9998V100.956H312.678V99.9998H311.722ZM311.722 85.6665V84.7109H310.766V85.6665H311.722ZM336.805 85.6665V86.622H337.761V85.6665H336.805ZM336.805 71.3331H337.761V70.3776H336.805V71.3331ZM308.139 71.3331V70.3776H307.183V71.3331H308.139ZM308.139 85.6665V86.622H309.094V85.6665H308.139ZM297.389 85.6665V84.7109H296.433V85.6665H297.389ZM297.389 99.9998V100.956H298.344V99.9998H297.389ZM293.805 99.9998V99.0442H292.85V99.9998H293.805ZM293.805 114.333H292.85V115.289H293.805V114.333ZM297.389 114.333H298.344V113.378H297.389V114.333ZM297.389 128.667H296.433V129.622H297.389V128.667ZM308.139 128.667H309.094V127.711H308.139V128.667ZM308.139 143H307.183V143.956H308.139V143ZM336.805 143V143.956H337.761V143H336.805ZM336.805 128.667H337.761V127.711H336.805V128.667ZM311.722 128.667H310.766V129.622H311.722V128.667ZM350.183 42.6665V85.6665H352.094V42.6665H350.183ZM351.139 84.7109H336.805V86.622H351.139V84.7109ZM335.85 85.6665V99.9998H337.761V85.6665H335.85ZM336.805 100.956H351.139V99.0442H336.805V100.956ZM350.183 99.9998V114.333H352.094V99.9998H350.183ZM351.139 113.378H336.805V115.289H351.139V113.378ZM335.85 114.333V128.667H337.761V114.333H335.85ZM336.805 129.622H351.139V127.711H336.805V129.622ZM350.183 128.667V143H352.094V128.667H350.183ZM351.139 143.956H365.472V142.044H351.139V143.956ZM366.428 143V42.6665H364.516V143H366.428ZM365.472 41.7109H351.139V43.622H365.472V41.7109ZM311.722 113.378H308.139V115.289H311.722V113.378ZM309.094 114.333V99.9998H307.183V114.333H309.094ZM308.139 100.956H311.722V99.0442H308.139V100.956ZM312.678 99.9998V85.6665H310.766V99.9998H312.678ZM311.722 86.622H336.805V84.7109H311.722V86.622ZM337.761 85.6665V71.3331H335.85V85.6665H337.761ZM336.805 70.3776H308.139V72.2887H336.805V70.3776ZM307.183 71.3331V85.6665H309.094V71.3331H307.183ZM308.139 84.7109H297.389V86.622H308.139V84.7109ZM296.433 85.6665V99.9998H298.344V85.6665H296.433ZM297.389 99.0442H293.805V100.956H297.389V99.0442ZM292.85 99.9998V114.333H294.761V99.9998H292.85ZM293.805 115.289H297.389V113.378H293.805V115.289ZM296.433 114.333V128.667H298.344V114.333H296.433ZM297.389 129.622H308.139V127.711H297.389V129.622ZM307.183 128.667V143H309.094V128.667H307.183ZM308.139 143.956H336.805V142.044H308.139V143.956ZM337.761 143V128.667H335.85V143H337.761ZM336.805 127.711H311.722V129.622H336.805V127.711ZM312.678 128.667V114.333H310.766V128.667H312.678ZM440.666 71.3331H441.622V70.3776H440.666V71.3331ZM397.666 71.3331V70.3776H396.71V71.3331H397.666ZM397.666 85.6665H396.71V86.622H397.666V85.6665ZM440.666 85.6665V86.622H441.622V85.6665H440.666ZM454.999 128.667H454.044V129.622H454.999V128.667ZM454.999 85.6665H455.955V84.7109H454.999V85.6665ZM440.666 85.6665V84.7109H439.71V85.6665H440.666ZM440.666 99.9998V100.956H441.622V99.9998H440.666ZM397.666 99.9998V99.0442H396.71V99.9998H397.666ZM397.666 114.333V115.289H398.622V114.333H397.666ZM386.916 114.333V113.378H385.96V114.333H386.916ZM386.916 128.667H385.96V129.622H386.916V128.667ZM397.666 128.667H398.622V127.711H397.666V128.667ZM397.666 143H396.71V143.956H397.666V143ZM440.666 143V143.956H441.622V143H440.666ZM440.666 128.667H441.622V127.711H440.666V128.667ZM401.249 128.667H400.294V129.622H401.249V128.667ZM401.249 114.333V113.378H400.294V114.333H401.249ZM440.666 114.333H441.622V113.378H440.666V114.333ZM440.666 128.667H439.71V129.622H440.666V128.667ZM447.833 128.667H448.788V127.711H447.833V128.667ZM447.833 143H446.877V143.956H447.833V143ZM462.166 143V143.956H463.122V143H462.166ZM462.166 128.667H463.122V127.711H462.166V128.667ZM440.666 70.3776H397.666V72.2887H440.666V70.3776ZM396.71 71.3331V85.6665H398.622V71.3331H396.71ZM397.666 86.622H440.666V84.7109H397.666V86.622ZM441.622 85.6665V71.3331H439.71V85.6665H441.622ZM455.955 128.667V85.6665H454.044V128.667H455.955ZM454.999 84.7109H440.666V86.622H454.999V84.7109ZM439.71 85.6665V99.9998H441.622V85.6665H439.71ZM440.666 99.0442H397.666V100.956H440.666V99.0442ZM396.71 99.9998V114.333H398.622V99.9998H396.71ZM397.666 113.378H386.916V115.289H397.666V113.378ZM385.96 114.333V128.667H387.872V114.333H385.96ZM386.916 129.622H397.666V127.711H386.916V129.622ZM396.71 128.667V143H398.622V128.667H396.71ZM397.666 143.956H440.666V142.044H397.666V143.956ZM441.622 143V128.667H439.71V143H441.622ZM440.666 127.711H401.249V129.622H440.666V127.711ZM402.205 128.667V114.333H400.294V128.667H402.205ZM401.249 115.289H440.666V113.378H401.249V115.289ZM439.71 114.333V128.667H441.622V114.333H439.71ZM440.666 129.622H447.833V127.711H440.666V129.622ZM446.877 128.667V143H448.788V128.667H446.877ZM447.833 143.956H462.166V142.044H447.833V143.956ZM463.122 143V128.667H461.21V143H463.122ZM462.166 127.711H454.999V129.622H462.166V127.711ZM533.833 85.6665V86.622H534.788V85.6665H533.833ZM530.249 85.6665V84.7109H529.294V85.6665H530.249ZM530.249 99.9998V100.956H531.205V99.9998H530.249ZM526.666 99.9998V99.0442H525.71V99.9998H526.666ZM526.666 114.333V115.289H527.622V114.333H526.666ZM523.083 114.333V113.378H522.127V114.333H523.083ZM523.083 128.667V129.622H524.038V128.667H523.083ZM508.749 128.667H507.794V129.622H508.749V128.667ZM508.749 114.333H509.705V113.378H508.749V114.333ZM505.166 114.333H504.21V115.289H505.166V114.333ZM505.166 99.9998H506.122V99.0442H505.166V99.9998ZM501.583 99.9998H500.627V100.956H501.583V99.9998ZM501.583 85.6665H502.538V84.7109H501.583V85.6665ZM497.999 85.6665H497.044V86.622H497.999V85.6665ZM497.999 71.3331H498.955V70.3776H497.999V71.3331ZM483.666 71.3331V70.3776H482.71V71.3331H483.666ZM483.666 85.6665H482.71V86.622H483.666V85.6665ZM487.249 85.6665H488.205V84.7109H487.249V85.6665ZM487.249 99.9998H486.294V100.956H487.249V99.9998ZM490.833 99.9998H491.788V99.0442H490.833V99.9998ZM490.833 114.333H489.877V115.289H490.833V114.333ZM494.416 114.333H495.372V113.378H494.416V114.333ZM494.416 128.667H493.46V129.622H494.416V128.667ZM501.583 128.667H502.538V127.711H501.583V128.667ZM501.583 143H500.627V143.956H501.583V143ZM508.749 143H509.705V142.044H508.749V143ZM508.749 157.333V158.289H509.705V157.333H508.749ZM487.249 157.333V156.378H486.294V157.333H487.249ZM487.249 171.667H486.294V172.622H487.249V171.667ZM515.916 171.667V172.622H516.872V171.667H515.916ZM515.916 157.333V156.378H514.96V157.333H515.916ZM523.083 157.333V158.289H524.038V157.333H523.083ZM523.083 143V142.044H522.127V143H523.083ZM530.249 143V143.956H531.205V143H530.249ZM530.249 128.667V127.711H529.294V128.667H530.249ZM537.416 128.667V129.622H538.372V128.667H537.416ZM537.416 114.333V113.378H536.46V114.333H537.416ZM540.999 114.333V115.289H541.955V114.333H540.999ZM540.999 99.9998V99.0442H540.044V99.9998H540.999ZM544.583 99.9998V100.956H545.538V99.9998H544.583ZM544.583 85.6665V84.7109H543.627V85.6665H544.583ZM548.166 85.6665V86.622H549.122V85.6665H548.166ZM548.166 71.3331H549.122V70.3776H548.166V71.3331ZM533.833 71.3331V70.3776H532.877V71.3331H533.833ZM533.833 84.7109H530.249V86.622H533.833V84.7109ZM529.294 85.6665V99.9998H531.205V85.6665H529.294ZM530.249 99.0442H526.666V100.956H530.249V99.0442ZM525.71 99.9998V114.333H527.622V99.9998H525.71ZM526.666 113.378H523.083V115.289H526.666V113.378ZM522.127 114.333V128.667H524.038V114.333H522.127ZM523.083 127.711H508.749V129.622H523.083V127.711ZM509.705 128.667V114.333H507.794V128.667H509.705ZM508.749 113.378H505.166V115.289H508.749V113.378ZM506.122 114.333V99.9998H504.21V114.333H506.122ZM505.166 99.0442H501.583V100.956H505.166V99.0442ZM502.538 99.9998V85.6665H500.627V99.9998H502.538ZM501.583 84.7109H497.999V86.622H501.583V84.7109ZM498.955 85.6665V71.3331H497.044V85.6665H498.955ZM497.999 70.3776H483.666V72.2887H497.999V70.3776ZM482.71 71.3331V85.6665H484.622V71.3331H482.71ZM483.666 86.622H487.249V84.7109H483.666V86.622ZM486.294 85.6665V99.9998H488.205V85.6665H486.294ZM487.249 100.956H490.833V99.0442H487.249V100.956ZM489.877 99.9998V114.333H491.788V99.9998H489.877ZM490.833 115.289H494.416V113.378H490.833V115.289ZM493.46 114.333V128.667H495.372V114.333H493.46ZM494.416 129.622H501.583V127.711H494.416V129.622ZM500.627 128.667V143H502.538V128.667H500.627ZM501.583 143.956H508.749V142.044H501.583V143.956ZM507.794 143V157.333H509.705V143H507.794ZM508.749 156.378H487.249V158.289H508.749V156.378ZM486.294 157.333V171.667H488.205V157.333H486.294ZM487.249 172.622H515.916V170.711H487.249V172.622ZM516.872 171.667V157.333H514.96V171.667H516.872ZM515.916 158.289H523.083V156.378H515.916V158.289ZM524.038 157.333V143H522.127V157.333H524.038ZM523.083 143.956H530.249V142.044H523.083V143.956ZM531.205 143V128.667H529.294V143H531.205ZM530.249 129.622H537.416V127.711H530.249V129.622ZM538.372 128.667V114.333H536.46V128.667H538.372ZM537.416 115.289H540.999V113.378H537.416V115.289ZM541.955 114.333V99.9998H540.044V114.333H541.955ZM540.999 100.956H544.583V99.0442H540.999V100.956ZM545.538 99.9998V85.6665H543.627V99.9998H545.538ZM544.583 86.622H548.166V84.7109H544.583V86.622ZM549.122 85.6665V71.3331H547.21V85.6665H549.122ZM548.166 70.3776H533.833V72.2887H548.166V70.3776ZM532.877 71.3331V85.6665H534.788V71.3331H532.877Z" fill="#101010"/>
<path d="M114.666 42.666V56.9993H128.999V42.666H114.666ZM128.999 128.666V71.3326H100.332V85.666H114.666V142.999H143.332V128.666H128.999ZM222.222 42.666V85.666H207.888V99.9993H222.222V114.332H207.888V128.666H222.222V142.999H236.555V42.666H222.222ZM182.805 114.332H179.222V99.9993H182.805V85.666H207.888V71.3326H179.222V85.666H168.472V99.9993H164.888V114.332H168.472V128.666H179.222V142.999H207.888V128.666H182.805V114.332Z" fill="#7F7CF9"/>
<path d="M114.668 42.6665V41.7109H113.712V42.6665H114.668ZM114.668 56.9998H113.712V57.9554H114.668V56.9998ZM129.001 56.9998V57.9554H129.957V56.9998H129.001ZM129.001 42.6665H129.957V41.7109H129.001V42.6665ZM129.001 128.667H128.045V129.622H129.001V128.667ZM129.001 71.3331H129.957V70.3776H129.001V71.3331ZM100.334 71.3331V70.3776H99.3789V71.3331H100.334ZM100.334 85.6665H99.3789V86.622H100.334V85.6665ZM114.668 85.6665H115.623V84.7109H114.668V85.6665ZM114.668 143H113.712V143.956H114.668V143ZM143.334 143V143.956H144.29V143H143.334ZM143.334 128.667H144.29V127.711H143.334V128.667ZM113.712 42.6665V56.9998H115.623V42.6665H113.712ZM114.668 57.9554H129.001V56.0442H114.668V57.9554ZM129.957 56.9998V42.6665H128.045V56.9998H129.957ZM129.001 41.7109H114.668V43.622H129.001V41.7109ZM129.957 128.667V71.3331H128.045V128.667H129.957ZM129.001 70.3776H100.334V72.2887H129.001V70.3776ZM99.3789 71.3331V85.6665H101.29V71.3331H99.3789ZM100.334 86.622H114.668V84.7109H100.334V86.622ZM113.712 85.6665V143H115.623V85.6665H113.712ZM114.668 143.956H143.334V142.044H114.668V143.956ZM144.29 143V128.667H142.379V143H144.29ZM143.334 127.711H129.001V129.622H143.334V127.711ZM222.224 42.6665V41.7109H221.268V42.6665H222.224ZM222.224 85.6665V86.622H223.179V85.6665H222.224ZM207.89 85.6665V84.7109H206.935V85.6665H207.89ZM207.89 99.9998H206.935V100.956H207.89V99.9998ZM222.224 99.9998H223.179V99.0442H222.224V99.9998ZM222.224 114.333V115.289H223.179V114.333H222.224ZM207.89 114.333V113.378H206.935V114.333H207.89ZM207.89 128.667H206.935V129.622H207.89V128.667ZM222.224 128.667H223.179V127.711H222.224V128.667ZM222.224 143H221.268V143.956H222.224V143ZM236.557 143V143.956H237.512V143H236.557ZM236.557 42.6665H237.512V41.7109H236.557V42.6665ZM182.807 114.333H183.763V113.378H182.807V114.333ZM179.224 114.333H178.268V115.289H179.224V114.333ZM179.224 99.9998V99.0442H178.268V99.9998H179.224ZM182.807 99.9998V100.956H183.763V99.9998H182.807ZM182.807 85.6665V84.7109H181.851V85.6665H182.807ZM207.89 85.6665V86.622H208.846V85.6665H207.89ZM207.89 71.3331H208.846V70.3776H207.89V71.3331ZM179.224 71.3331V70.3776H178.268V71.3331H179.224ZM179.224 85.6665V86.622H180.179V85.6665H179.224ZM168.474 85.6665V84.7109H167.518V85.6665H168.474ZM168.474 99.9998V100.956H169.429V99.9998H168.474ZM164.89 99.9998V99.0442H163.935V99.9998H164.89ZM164.89 114.333H163.935V115.289H164.89V114.333ZM168.474 114.333H169.429V113.378H168.474V114.333ZM168.474 128.667H167.518V129.622H168.474V128.667ZM179.224 128.667H180.179V127.711H179.224V128.667ZM179.224 143H178.268V143.956H179.224V143ZM207.89 143V143.956H208.846V143H207.89ZM207.89 128.667H208.846V127.711H207.89V128.667ZM182.807 128.667H181.851V129.622H182.807V128.667ZM221.268 42.6665V85.6665H223.179V42.6665H221.268ZM222.224 84.7109H207.89V86.622H222.224V84.7109ZM206.935 85.6665V99.9998H208.846V85.6665H206.935ZM207.89 100.956H222.224V99.0442H207.89V100.956ZM221.268 99.9998V114.333H223.179V99.9998H221.268ZM222.224 113.378H207.89V115.289H222.224V113.378ZM206.935 114.333V128.667H208.846V114.333H206.935ZM207.89 129.622H222.224V127.711H207.89V129.622ZM221.268 128.667V143H223.179V128.667H221.268ZM222.224 143.956H236.557V142.044H222.224V143.956ZM237.512 143V42.6665H235.601V143H237.512ZM236.557 41.7109H222.224V43.622H236.557V41.7109ZM182.807 113.378H179.224V115.289H182.807V113.378ZM180.179 114.333V99.9998H178.268V114.333H180.179ZM179.224 100.956H182.807V99.0442H179.224V100.956ZM183.763 99.9998V85.6665H181.851V99.9998H183.763ZM182.807 86.622H207.89V84.7109H182.807V86.622ZM208.846 85.6665V71.3331H206.935V85.6665H208.846ZM207.89 70.3776H179.224V72.2887H207.89V70.3776ZM178.268 71.3331V85.6665H180.179V71.3331H178.268ZM179.224 84.7109H168.474V86.622H179.224V84.7109ZM167.518 85.6665V99.9998H169.429V85.6665H167.518ZM168.474 99.0442H164.89V100.956H168.474V99.0442ZM163.935 99.9998V114.333H165.846V99.9998H163.935ZM164.89 115.289H168.474V113.378H164.89V115.289ZM167.518 114.333V128.667H169.429V114.333H167.518ZM168.474 129.622H179.224V127.711H168.474V129.622ZM178.268 128.667V143H180.179V128.667H178.268ZM179.224 143.956H207.89V142.044H179.224V143.956ZM208.846 143V128.667H206.935V143H208.846ZM207.89 127.711H182.807V129.622H207.89V127.711ZM183.763 128.667V114.333H181.851V128.667H183.763Z" fill="#7F7CF9"/>
</g>
<defs>
<clipPath id="clip0_722_729">
<rect width="556" height="172" fill="white"/>
</clipPath>
</defs>
</svg>
