<svg width="295" height="328" viewBox="0 0 295 328" fill="none" xmlns="http://www.w3.org/2000/svg">
<path d="M38.4232 77.173C41.4922 71.476 45.9202 66.619 51.3192 63.031L141.912 0L49.0882 152.931C49.0882 152.931 40.9782 139.275 37.8142 132.365C33.8732 123.677 31.8852 114.236 31.9902 104.702C32.0952 95.168 34.2912 85.772 38.4232 77.173ZM1.03416 182.669C2.05716 197.294 6.20416 211.532 13.1982 224.43C20.1912 237.329 29.8702 248.589 41.5862 257.458L141.79 327.075C141.79 327.075 79.0962 237.054 26.2172 147.477C20.8632 138.013 17.2642 127.666 15.5922 116.931C14.8522 112.07 14.8522 107.125 15.5922 102.264C14.2132 104.81 11.5372 110.022 11.5372 110.022C6.17517 120.917 2.52317 132.568 0.709165 144.568C-0.334835 157.252 -0.225838 170.004 1.03416 182.669ZM256.512 194.79C253.267 187.881 245.238 174.224 245.238 174.224L152.577 327.075L243.17 264.084C248.568 260.496 252.997 255.64 256.066 249.943C260.198 241.343 262.393 231.947 262.499 222.414C262.604 212.88 260.616 203.438 256.674 194.75L256.512 194.79ZM293.292 144.446C292.269 129.822 288.122 115.583 281.129 102.685C274.135 89.787 264.456 78.526 252.74 69.658L152.698 0C152.698 0 215.351 90.021 268.272 179.598C273.611 189.065 277.196 199.412 278.856 210.144C279.596 215.005 279.596 219.95 278.856 224.811C280.235 222.265 282.911 217.053 282.911 217.053C288.273 206.158 291.925 194.507 293.738 182.507C294.796 169.824 294.701 157.072 293.455 144.406L293.292 144.446Z" fill="#5298FF"/>
</svg>
